# xmcd CD database file
#
# Track frame offsets:
#	150
#	15452
#	28015
#	38180
#	51090
#	70322
#	85272
#	95097
#	109022
#	123590
#
# Disc length: 1823 seconds
#
# Revision: 0
# Processed by: cddbd v1.5.1PL0 Copyright (c) Steve Scherf et al.
# Submitted via: CDex 1.51
#
DISCID=81071d0a
DTITLE=Various Artist - Country: From The Heart
DYEAR=1900
DGENRE=Country
TTITLE0=Kenny Rodges-For The Good Times
TTITLE1=Reba McEntire-You Lift Me Up To Heaven
TTITLE2=Johnny Cash-The Ways Of A Woman In Love
TTITLE3=George Jones-Aching Breaking Heart
TTITLE4=Alabama-I Want To Be With You Tonight
TTITLE5=Donna Fargo-You Were Always There
TTITLE6=Conway Twitty-Ever Since You Went Away
TTITLE7=Hank Williams Sr.-Rainy Night In Georgia
TTITLE8=Charlie Pride-Shouldn't It Be Easier Than This
TTITLE9=David Houston-Almost Persuaded
EXTD=
EXTT0=
EXTT1=
EXTT2=
EXTT3=
EXTT4=
EXTT5=
EXTT6=
EXTT7=
EXTT8=
EXTT9=
PLAYORDER=
